<svg width="128" height="128" viewBox="0 0 128 128" fill="none" xmlns="http://www.w3.org/2000/svg">
<g filter="url(#filter0_d_3546_3533)">
<path fill-rule="evenodd" clip-rule="evenodd" d="M121.544 12.7805L114.71 113.285C114.659 113.336 114.608 113.386 114.556 113.435C114.244 115.819 113.382 117.782 111.927 119.237C105.344 125.819 88.3631 120.262 69.0124 106.602L73.8472 101.767C78.7518 105.173 83.4473 107.999 87.7798 110.177C93.6248 113.117 98.4609 114.702 102.05 115.141C105.742 115.592 106.91 114.731 107.166 114.475C107.421 114.22 108.282 113.052 107.831 109.36C107.392 105.771 105.807 100.935 102.868 95.0896C97.359 84.1358 87.716 70.8619 75.0072 57.7533L16.5894 116.171L17.7078 105.53L70.2458 52.9919C57.1376 40.2836 43.8639 30.6408 32.9104 25.1324C27.0654 22.193 22.2292 20.6083 18.6404 20.1693C14.9485 19.7177 13.7802 20.5789 13.5246 20.8345C13.2691 21.09 12.4078 22.2583 12.8594 25.9503C13.2984 29.5391 14.8832 34.3752 17.8226 40.2202C20.0013 44.5527 22.8269 49.2482 26.2332 54.1528L21.3983 58.9876C7.73846 39.6369 2.18078 22.6555 8.76323 16.0731C10.2192 14.6171 12.184 13.7551 14.5707 13.4433C14.6182 13.3935 14.6663 13.3443 14.7149 13.2957L115.224 6.46108L122.005 6L121.544 12.7805ZM78.57 15.7027L109.648 13.5894L95.0055 28.2322C89.0966 22.6089 83.327 18.5441 78.57 15.7027ZM65.4705 16.5935L35.0227 18.664C46.9392 24.4878 61.1593 34.7916 75.0078 48.23L90.2428 32.995C83.8632 26.943 77.6783 22.8371 72.9541 20.1986C70.3325 18.7344 68.1649 17.7243 66.67 17.0861C66.2017 16.8862 65.7996 16.7228 65.4705 16.5935ZM94.9642 37.7964L79.7692 52.9914C93.2115 66.8437 103.518 81.0681 109.341 92.9867L111.477 61.5645C111.333 61.2537 111.153 60.8772 110.936 60.4403C110.224 59.002 109.115 56.911 107.556 54.3591C104.829 49.8981 100.73 44.0385 94.9642 37.7964ZM99.7286 33.0319C105.299 39.0384 109.414 44.7291 112.311 49.3014L114.416 18.3444L99.7286 33.0319ZM44.8054 51.452L22.3052 73.9521L21.1868 84.5933L51.2189 54.5612L44.8054 51.452ZM73.4388 76.7811L43.4438 106.776L54.0851 105.658L76.9859 82.7567L73.4388 76.7811Z" fill="url(#paint0_linear_3546_3533)"/>
</g>
<defs>
<filter id="filter0_d_3546_3533" x="0" y="0" width="128.005" height="128" filterUnits="userSpaceOnUse" color-interpolation-filters="sRGB">
<feFlood flood-opacity="0" result="BackgroundImageFix"/>
<feColorMatrix in="SourceAlpha" type="matrix" values="0 0 0 0 0 0 0 0 0 0 0 0 0 0 0 0 0 0 127 0" result="hardAlpha"/>
<feOffset/>
<feGaussianBlur stdDeviation="3"/>
<feComposite in2="hardAlpha" operator="out"/>
<feColorMatrix type="matrix" values="0 0 0 0 1 0 0 0 0 0.426332 0 0 0 0 0.388542 0 0 0 0.8 0"/>
<feBlend mode="normal" in2="BackgroundImageFix" result="effect1_dropShadow_3546_3533"/>
<feBlend mode="normal" in="SourceGraphic" in2="effect1_dropShadow_3546_3533" result="shape"/>
</filter>
<linearGradient id="paint0_linear_3546_3533" x1="6" y1="6" x2="122" y2="122.005" gradientUnits="userSpaceOnUse">
<stop stop-color="#FFB0AB"/>
<stop offset="0.463542" stop-color="#FF6D63"/>
<stop offset="1" stop-color="#FF4337"/>
</linearGradient>
</defs>
</svg>
